<svg xmlns="http://www.w3.org/2000/svg" viewBox="0 0 402 487"><g fill="none" fill-rule="evenodd" transform="translate(1 1)"><g transform="translate(18.513 86.572)"><path fill="#FFF" fill-rule="nonzero" stroke="#3E3E3E" stroke-width="1.966" d="M344.083 142.24l-9.764-17.5-46.02 26.04-24.243-21.787c.486-.57 4.848-8.826-1.342-11.095-1.812-.656-2.5-.572-3.356 1.042l-9.027-6.304-12.063 17.685 46.305 33.523 59.508-21.603z" stroke-linecap="round" stroke-linejoin="round"/><path fill="#FF4845" fill-rule="nonzero" stroke="#3E3E3E" stroke-width="1.966" d="M304.59 148.225l-3.17-7.767 26.104-13.45c2.818-1.663 5.97-2.68 9.228-2.974l13.556 2.656s6.04 1.95 4.043 3.766c-1.995 1.815-25.953 29.25-25.953 29.25l-21.072-5.21-2.735-6.27z" stroke-linecap="round" stroke-linejoin="round"/><path fill="#FFF" fill-rule="nonzero" stroke="#3E3E3E" stroke-width="1.966" d="M376.58 42.364l-19.31-19.35-43.838 3.7c-4.413.403-9.295 3.58-10.402 7.884-.537 2.152-3.003 8.91-3.003 8.91-.486 6.713-.57 13.45-.252 20.173-2.896.593-4.99 3.126-5.033 6.087 0 4.623 4.06 5.632 6.224 5.833.32 2.22.722 4.405 1.208 6.54.302 1.31 2.3 2.723 2.668 3.968.37 1.244-.772 2.673-.252 3.984l.202.504c2.5 6.002 6.358 10.087 12.616 11.583 6.71 1.512 8.607.42 13.422.386v30.748s5.25.2 10.653-.1c5.402-.304 15.1-4.507 15.1-4.507v-17.752c0-5.548.268-10.17.285-10.205 17.297-23.956 20.065-55.78 19.713-58.386zM375.356 42.28v.1z" stroke-linecap="round" stroke-linejoin="round"/><path fill="#3E3E3E" fill-rule="nonzero" stroke="#3E3E3E" stroke-width="1.966" d="M363.377 54.35c3.982 1.134 7.65 3.17 10.72 5.952 2.786 3.093 4.782-4.05 4.782-4.05s6.945-27.96-6.074-43.29C359.786-2.37 345.962-.992 322.29 4.825 298.618 10.642 295.447 0 295.447 0c0 9.683 7.583 10.793 7.583 10.793-9.26 5.144-20.77-4.825-20.77-4.825 2.114 12.693 14.395 18.492 14.395 18.492-4.748 1.682-10.77-1.966-10.77-1.966s1.056 4.724 7.38 9.48c6.326 4.76 33.202 1.918 33.202 1.918s21.04 5.043 25.45 13.45c2.418 5.27 3.856 10.938 4.246 16.726-.046.464.292.878.755.925.463.046.876-.293.923-.757l2.064-8.103c.626-1.31 2.047-2.038 3.473-1.782z" stroke-linecap="round" stroke-linejoin="round"/><path fill="#3E3E3E" fill-rule="nonzero" stroke="#3E3E3E" stroke-width="1.966" d="M378.88 56.25l-3.507 11.903C371.53 80.005 362.73 91.62 362.73 91.62c-.635.874-1.148.708-1.148-.385v-8.33c0-8.22 7.28-9.815 7.28-9.815s4.03-14.188 6.046-17.575c1.323-2.226 3.97.736 3.97.736z" stroke-linecap="round" stroke-linejoin="round"/><path fill="#FFF" fill-rule="nonzero" stroke="#3E3E3E" stroke-width="1.966" d="M361.6 55.175s10.317-.656 11.24 6.64c1.543 12.12-11.24 12.07-11.24 12.07" stroke-linecap="round" stroke-linejoin="round"/><ellipse cx="315.378" cy="57.461" fill="#3E3E3E" fill-rule="nonzero" rx="2.735" ry="4.052"/><path stroke="#3E3E3E" stroke-width="1.966" d="M309.355 48.837s8.875-4.287 14.78.908" stroke-linecap="round" stroke-linejoin="round"/><path fill="#FFF" fill-rule="nonzero" stroke="#3E3E3E" stroke-width="1.966" d="M45.803 83.954c-.275-2.142-2.124-3.726-4.278-3.665-1.143.062-2.206.605-2.928 1.495-.722.89-1.035 2.044-.863 3.178 0 0 14.385 98.97 15.34 99.507 1.56 2.722 4.452 4.4 7.584 4.405h92c4.854 0 8.79-3.944 8.79-8.81H61.08l-15.277-96.11zM48.3 202.61h15.92v162.582c.02 2.118-.807 4.155-2.293 5.66-1.487 1.506-3.51 2.355-5.625 2.36-4.382 0-7.935-3.56-7.935-7.953V202.61H48.3zM207.92 202.61h15.872v162.582c0 4.392-3.553 7.952-7.936 7.952-4.382 0-7.935-3.56-7.935-7.952V202.61z" stroke-linecap="round" stroke-linejoin="round"/><path fill="#FFF" fill-rule="nonzero" stroke="#3E3E3E" stroke-width="1.966" d="M169.652 294.685l44.074 30.16c1.875 1.278 4.423.83 5.754-1.01l-50.415-33.924v-1.193c-.842.81-1.267 1.963-1.152 3.127.115 1.164.756 2.212 1.74 2.84z" stroke-linecap="round" stroke-linejoin="round"/><path fill="#FFF" fill-rule="nonzero" stroke="#3E3E3E" stroke-width="1.966" d="M212.048 318.726L195.27 307.36c-1.335-.893-2.254-2.288-2.55-3.87-.298-1.58.054-3.216.974-4.535 2.003-2.772 5.838-3.456 8.674-1.546l16.777 11.363c1.335.894 2.255 2.29 2.55 3.87.298 1.582-.053 3.217-.973 4.536-2.004 2.77-5.84 3.455-8.674 1.546z" stroke-linecap="round" stroke-linejoin="round"/><path fill="#FFF" fill-rule="nonzero" stroke="#3E3E3E" stroke-width="1.966" d="M170.357 290.735c-.97-.64-1.465-1.797-1.26-2.94.203-1.146 1.07-2.06 2.2-2.322 5.748-1.735 11.932-1.298 17.38 1.227 12.785 6.573 14.026 11.92 14.026 11.92-2.242.603-4.055 2.257-4.865 4.437l-1.83 5.044-25.65-17.365z" stroke-linecap="round" stroke-linejoin="round"/><rect width="32.95" height="12.171" x="230.452" y="362.418" fill="#FFF" fill-rule="nonzero" stroke="#3E3E3E" stroke-width="1.966" stroke-linecap="round" rx="3.558" stroke-linejoin="round"/><path fill="#FFF" fill-rule="nonzero" stroke="#3E3E3E" stroke-width="1.966" d="M199.348 374.455h64.407c0 2.238-1.81 4.052-4.043 4.052h-56.32c-2.234 0-4.044-1.814-4.044-4.052z" stroke-linecap="round" stroke-linejoin="round"/><path fill="#FFF" fill-rule="nonzero" stroke="#3E3E3E" stroke-width="1.966" d="M201.864 374.455c-.955.024-1.838-.51-2.26-1.37-.42-.86-.305-1.887.297-2.63 2.954-3.65 8.256-8.608 15.738-9.483 14.345-1.68 18.455 2.018 18.455 2.018-1.528 1.96-2.02 4.538-1.325 6.926l1.325 4.54h-32.23zM323.347 368.89l-2.5-12.423h-8.27L310.11 370.1h13.354zM311.47 267.855h10.954v82.678H311.47z" stroke-linecap="round" stroke-linejoin="round"/><path fill="#FFF" fill-rule="nonzero" stroke="#3E3E3E" stroke-width="1.966" d="M269.862 346.952h93.85c5.236 0 9.48 4.252 9.48 9.498H260.366c0-5.246 4.244-9.498 9.48-9.498h.016z" stroke-linecap="round" stroke-linejoin="round"/><rect width="13.355" height="13.029" x="310.11" y="363.578" fill="#FFF" fill-rule="nonzero" stroke="#3E3E3E" stroke-width="1.966" stroke-linecap="round" rx="3.803" stroke-linejoin="round"/><ellipse cx="368.008" cy="361.141" fill="#FFF" fill-rule="nonzero" stroke="#3E3E3E" stroke-width="1.966" stroke-linecap="round" stroke-linejoin="round" rx="4.798" ry="4.674"/><ellipse cx="265.164" cy="361.141" fill="#FFF" fill-rule="nonzero" stroke="#3E3E3E" stroke-width="1.966" stroke-linecap="round" stroke-linejoin="round" rx="4.798" ry="4.674"/><path fill="#FFF" fill-rule="nonzero" stroke="#3E3E3E" stroke-width="1.966" d="M289.14 268.107H346.9c0 5.57-4.507 10.087-10.066 10.087H299.17c-5.558 0-10.065-4.516-10.065-10.087h.034z" stroke-linecap="round" stroke-linejoin="round"/><path fill="#D6D6D6" fill-rule="nonzero" stroke="#3E3E3E" stroke-width="1.966" d="M356.33 241.797c0-12.003-18.236-21.754-40.717-21.754-17.985 0-33.236 6.237-38.588 14.878l-23.034 2.12c-12.542 1.06-22.02 11.84-21.49 24.443l.586 10.087v83.62c.083 5.722 4.775 10.295 10.486 10.22h13.422c5.71.075 10.402-4.498 10.485-10.22v-80.745c.07-5.645 4.585-10.22 10.217-10.356l52.327-1.95c15.334-3.11 26.307-11.046 26.307-20.343z" stroke-linecap="round" stroke-linejoin="round"/><path fill="#D6D6D6" fill-rule="nonzero" stroke="#3E3E3E" stroke-width="1.966" d="M326.132 232.6l-.168-13.935-70.296 1.042c-13.136 1.143-17.012 2.22-25.568 12.003l-29.242 58.504c-1.717 3.856-.645 8.387 2.617 11.06l10.15 8.407c2.423 2.012 5.657 2.75 8.71 1.986 3.053-.763 5.562-2.935 6.758-5.852l23.706-52.636c2.143-5.33 6.907-9.153 12.565-10.086l60.767-10.49z" stroke-linecap="round" stroke-linejoin="round"/><path fill="#FFF" fill-rule="nonzero" stroke="#3E3E3E" stroke-width="1.966" d="M45.015 177.93h72.142v9.213c0 2.043-1.653 3.7-3.69 3.7h-64.76c-2.04 0-3.692-1.657-3.692-3.7v-9.212zM243.59 100.565c-3.17 2.56-5.95 5.566-8.256 8.927-5.536 7.784-8.02 15.534-5.553 17.282 1.68 1.16 5.034-.538 8.608-4.05 2.17-2.102 4.136-4.405 5.872-6.877 1.482-2.09 2.806-4.286 3.96-6.573.217-.42.402-.84.586-1.245-1.397 0-2.736-.56-3.72-1.555-.982-.994-1.527-2.34-1.514-3.74l.017-2.17zM254.98 109.19c-.998.753-1.94 1.58-2.818 2.47-1.99 1.984-3.804 4.138-5.42 6.44-2.414 3.29-4.34 6.915-5.72 10.76-1.057 3.193-1.074 5.614.168 6.505 2.466 1.765 8.942-3.127 14.478-10.928 2.904-3.835 5.04-8.196 6.292-12.844l-.52.253c-1.202.6-2.603.647-3.842.13-1.24-.515-2.194-1.544-2.618-2.82v.033z" stroke-linecap="round" stroke-linejoin="round"/><path fill="#FFF" fill-rule="nonzero" stroke="#3E3E3E" stroke-width="1.966" d="M248.806 108.063l-.77 1.06-9.63 13.6-2.753 3.883c-.855 1.15-.77 2.747.202 3.8.594.59 1.418.893 2.253.825.836-.067 1.6-.497 2.092-1.178l.84-1.177 11.994-16.912 1.963-2.774-1.476.756c-.862.443-1.875.49-2.775.13-.9-.362-1.602-1.095-1.922-2.013h-.017z" stroke-linecap="round" stroke-linejoin="round"/><path fill="#FFF" fill-rule="nonzero" stroke="#3E3E3E" stroke-width="1.966" d="M335.158 151.772l-13.02-18.14-35.818 22.377-13.22-11.147-11.744-9.734s-1.024-9.012-2.97-10.087c-1.757-1.21-4.04-1.34-5.922-.337-1.477.807-7.6-6.724-12.247-11.415-2.45-2.453-4.497-4.117-5.218-3.36-8.054 9.212-10.602 21.944.06 30.732 10.023 8.26 14.744 5.798 14.744 5.798l25.846 26.007c4.664 4.408 11.635 5.29 17.247 2.186 16.223-8.91 42.26-22.88 42.26-22.88zM227.902 127.362c1.49 2.075 3.175 4 5.033 5.75M230.285 120.268c1.864 2.455 3.978 4.708 6.308 6.725M233.254 113.913c1.82 2.262 3.878 4.32 6.14 6.137" stroke-linecap="round" stroke-linejoin="round"/><path fill="#FF4845" stroke="#3E3E3E" stroke-width="1.966" d="M356.803 119.764l.098-4.56c-4.263 3.457-9.413 3.966-14.858 4.634l-10.956 3.02.11 25.008h-16.21v54.354l-.324 7.346v13.43c0 8.862 7.37 16.047 16.466 16.047h25.51v.14-21.674l.165-97.746z" stroke-linecap="round" stroke-linejoin="round"/><path fill="#FF4845" fill-rule="nonzero" stroke="#3E3E3E" stroke-width="1.966" d="M331.836 122.622l-4.765 3.765-23.604 16.997 18.64 23.636 19.763-15.264s3.623-3.043 5.787-5.145l-1.963 1.683" stroke-linecap="round" stroke-linejoin="round"/><path stroke="#3E3E3E" stroke-width="1.966" d="M164.485 55.09c-16.777 22.56.99 45.02 1.174 45.24M176.917 66.74c-8.104 10.928.486 21.856.57 21.856M146.03 42.987c-26.02 35.102 1.56 70.086 1.846 70.422M12.038 180.066l14.898-81.014M17.256 113.577L8.7 180.067M13.297 185.177l-6.325-99.64M19.655 174.434L26.65 97.22M32.54 103.188l-12.415 83.266" stroke-linecap="round" stroke-linejoin="round"/><path fill="#FFF" fill-rule="nonzero" stroke="#3E3E3E" stroke-width="1.966" d="M.73 141.25h32.43v50.584H.73zM203.61 184.386l11.173-82.41M218.49 133.566l-4.278 51.123c-.25 2.97-2.548 5.36-5.503 5.715-2.227.277-4.468.43-6.712.454-1.493-.017-2.983-.13-4.462-.337-2.825-.372-5.048-2.6-5.42-5.43l-6.576-51.477 32.95-.05zM224.127 183.764l29.645-1.076v7.246l-29.645.303z" stroke-linecap="round" stroke-linejoin="round"/><rect width="97.341" height="3.715" x="178.594" y="188.119" fill="#FF4845" fill-rule="nonzero" rx="1.091"/><path fill="#FFF" fill-rule="nonzero" stroke="#3E3E3E" stroke-width="1.966" d="M136.55 188.12h52.715c0 2.04-1.653 3.697-3.69 3.697h-45.3c-2.038 0-3.69-1.656-3.69-3.698h-.034z" stroke-linecap="round" stroke-linejoin="round"/><path stroke="#3E3E3E" stroke-width="1.966" d="M303.567 82.006l12.448-.807s-1.677 8.54-10.368 8.54M329.756 87.738c-2.193-.716-4.117-2.082-5.52-3.917-1.51-2.477-1.812-5.508-.822-8.236" stroke-linecap="round" stroke-linejoin="round"/></g><path fill="#FFF" d="M374.593 304.673v-2.98l-.076-48.765.242-46c.37-1.638 1.212-3.084 2.357-4.24 1.6-1.603 3.813-2.59 6.27-2.59 4.896 0 8.855 3.962 8.855 8.865l.25 95.71v26.213c0 13.205-10.964 23.923-24.515 23.96l-89.426.27c-4.47.013-8.105-3.515-8.105-7.873 0-3.033 2.525-5.49 5.637-5.49h82.7c8.732 0 15.81-6.9 15.81-15.406v-21.674"/><path stroke="#3E3E3E" stroke-width="1.966" d="M374.593 304.673v-2.98l-.076-48.765.242-46c.37-1.638 1.212-3.084 2.357-4.24 1.6-1.603 3.813-2.59 6.27-2.59 4.896 0 8.855 3.962 8.855 8.865l.25 95.71v26.213c0 13.205-10.964 23.923-24.515 23.96l-89.426.27c-4.47.013-8.105-3.515-8.105-7.873 0-3.033 2.525-5.49 5.637-5.49h82.7c8.732 0 15.81-6.9 15.81-15.406v-21.674" stroke-linecap="round" stroke-linejoin="round"/><path fill="#FFF" fill-rule="nonzero" stroke="#3E3E3E" stroke-width="1.966" d="M348.225 278.103H0v15.248h2.517v184.354c0 3.63 3.556 6.556 7.952 6.556 5.267 0 8.824-2.942 8.824-6.556V293.35H297.77v184.354c0 3.63 3.556 6.556 7.952 6.556 5.268 0 8.825-2.942 8.825-6.556V293.35h4.194l29.485-15.247z" stroke-linecap="round" stroke-linejoin="round"/><path stroke="#FF4845" stroke-width="1.966" d="M74.323 70.832l-6.918 12.79-7.454-10.657zM133.69.33l8.274 18.082-17.773-.63z" stroke-linecap="round" stroke-linejoin="round"/><ellipse cx="143.98" cy="68.372" stroke="#FF4845" stroke-width="1.966" rx="9.337" ry="9.346"/><ellipse cx="114.314" cy="118.362" stroke="#FF4845" stroke-width="1.966" stroke-linecap="round" stroke-linejoin="round" transform="rotate(61 114.314 118.362)" rx="5.288" ry="5.293"/><path stroke="#FF4845" stroke-width="1.966" d="M248.384 90.99l4.47-12.814 8.49 8.792z" stroke-linecap="round" stroke-linejoin="round"/><g stroke="#FF4845" stroke-width="1.966" stroke-linecap="round" stroke-linejoin="round"><path d="M53.07 125.923v11.786M59.027 131.826H47.174"/></g><g stroke="#FF4845" stroke-width="1.966" stroke-linecap="round" stroke-linejoin="round"><path d="M199.51 93.458v11.786M205.464 99.36h-11.852"/></g><g stroke="#FF4845" stroke-width="1.966" stroke-linecap="round" stroke-linejoin="round"><path d="M214.05 29.242l-5.35 10.5M216.678 37.205l-10.56-5.38"/></g></g></svg>
