<svg xmlns="http://www.w3.org/2000/svg" viewBox="0 0 402 370"><g fill="none" fill-rule="evenodd" transform="translate(1 -8)"><path fill="#FEFEFE" d="M230.89 265.01c.11 2.76-2.04 5.086-4.8 5.194-2.758.11-5.084-2.04-5.193-4.798-.11-2.76 2.04-5.083 4.798-5.193 2.76-.11 5.085 2.04 5.195 4.798"/><path stroke="#3D3E3E" stroke-width="1.762" d="M230.89 265.01c.11 2.76-2.04 5.086-4.8 5.194-2.758.11-5.084-2.04-5.193-4.798-.11-2.76 2.04-5.083 4.798-5.193 2.76-.11 5.085 2.04 5.195 4.798z" stroke-linecap="round" stroke-linejoin="round"/><path fill="#FEFEFE" d="M207.858 242.42c.05 1.288-.953 2.376-2.243 2.427-1.29.05-2.376-.953-2.427-2.242-.05-1.29.953-2.376 2.243-2.428 1.29-.05 2.377.954 2.428 2.243"/><path stroke="#3D3E3E" stroke-width="1.762" d="M207.858 242.42c.05 1.288-.953 2.376-2.243 2.427-1.29.05-2.376-.953-2.427-2.242-.05-1.29.953-2.376 2.243-2.428 1.29-.05 2.377.954 2.428 2.243z" stroke-linecap="round" stroke-linejoin="round"/><path fill="#FEFEFE" d="M193.89 239.637l11.022-.865c.203-.015.407.007.602.068 1.614.503 1.457 2.837-.21 3.117l-11.413 1.924"/><path stroke="#3D3E3E" stroke-width="1.762" d="M193.89 239.637l11.022-.865c.203-.015.407.007.602.068 1.614.503 1.457 2.837-.21 3.117l-11.413 1.924" stroke-linecap="round" stroke-linejoin="round"/><path fill="#FEFEFE" d="M184.56 220V244.4c0 2.576 2.09 4.665 4.665 4.665 2.577 0 4.666-2.09 4.666-4.665V222.2l-9.33-2.2z"/><path stroke="#3D3E3E" stroke-width="1.762" d="M184.56 220V244.4c0 2.576 2.09 4.665 4.665 4.665 2.577 0 4.666-2.09 4.666-4.665V222.2l-9.33-2.2z" stroke-linecap="round" stroke-linejoin="round"/><path fill="#FEFEFE" d="M184.54 244.89l-35.515 15.056 9.23 2.21 28.16-13.04c1.14-.53 1.65-1.874 1.145-3.026-.507-1.16-1.853-1.696-3.02-1.2"/><path stroke="#3D3E3E" stroke-width="1.762" d="M184.54 244.89l-35.515 15.056 9.23 2.21 28.16-13.04c1.14-.53 1.65-1.874 1.145-3.026-.507-1.16-1.853-1.696-3.02-1.2zM185.963 89.808s38.672-9.235 55.42 8.514c18.37 19.468-1.884 69.063-2.456 70.782l-32.08-1.633-20.884-77.662z" stroke-linecap="round" stroke-linejoin="round"/><path stroke="#3D3E3E" stroke-width="1.762" d="M174.412 165.544S126.62 87.63 203.592 87.63c65.968 0 29.246 79.925 29.246 79.925l-58.426-2.01z" stroke-linecap="round" stroke-linejoin="round"/><path fill="#FEFEFE" d="M161.287 302.732l12.332-10.126c1.97-1.618 1.3-4.784-1.16-5.464l-10.437-2.893-22.87 14.252 22.134 4.23z"/><path stroke="#3D3E3E" stroke-width="1.762" d="M164.866 298.862l12.33-8.77c1.97-1.4 1.3-4.142-1.156-4.732l-10.44-2.505-22.87 12.344 22.136 3.662z" stroke-linecap="round" stroke-linejoin="round"/><path fill="#FEFEFE" d="M173.593 284.76c.772 2.498-.102 5.213-2.188 6.79l-9.813 7.422c-1.37 1.036-3.108 1.46-4.8 1.17l-1.604-.276c-5.137-.88-6.973-7.31-3.077-10.77l6.244-5.546c.663-.59 1.443-1.028 2.29-1.29l5.172-1.6c3.28-1.018 6.762.82 7.777 4.1"/><path stroke="#3D3E3E" stroke-width="1.762" d="M173.517 284.268c.728 2.512-.193 5.212-2.307 6.753l-9.94 7.25c-1.388 1.012-3.134 1.405-4.82 1.085l-1.6-.303c-5.12-.97-6.843-7.43-2.888-10.823l6.34-5.437c.672-.576 1.46-1.002 2.31-1.25l5.2-1.51c3.298-.96 6.747.938 7.705 4.235z" stroke-linecap="round" stroke-linejoin="round"/><path fill="#D6D6D6" d="M168.023 286.504h-6.17c-4.346 0-7.87-3.522-7.87-7.868v-64.554h25.522v60.942c0 6.34-5.14 11.48-11.482 11.48"/><path stroke="#3D3E3E" stroke-width="1.762" d="M168.023 286.504h-6.17c-4.346 0-7.87-3.522-7.87-7.868v-64.554h25.522v60.942c0 6.34-5.14 11.48-11.482 11.48z" stroke-linecap="round" stroke-linejoin="round"/><path fill="#FFF" stroke="#3D3E3E" stroke-width="1.762" d="M146.6 289.615s3.376-1.274 9.286.724c5.91 1.997 9.033 8.56 9.033 8.56s-13.28 12.82-24.157 8.523c-11.54-4.56 5.837-17.808 5.837-17.808z" stroke-linecap="round" stroke-linejoin="round"/><path fill="#FEFEFE" d="M216.795 107.687l-10.59-5.288c-1.007-1.61-2.104-3.876-2.758-6.818-1.442-6.487 1.465-13.734 1.465-13.734l-17.04 10.27-.594 10.52-9.008 3.934c-6.9 3.014-11.314 9.88-11.185 17.41l.712 41.878 56.917 3.244 1.174-46.053c.164-6.44-3.368-12.407-9.093-15.363"/><path stroke="#3D3E3E" stroke-width="1.762" d="M216.795 107.687l-10.59-5.288c-1.007-1.61-2.104-3.876-2.758-6.818-1.442-6.487 1.465-13.734 1.465-13.734l-17.04 10.27-.594 10.52-9.008 3.934c-6.9 3.014-11.314 9.88-11.185 17.41l.712 41.878 56.917 3.244 1.174-46.053c.164-6.44-3.368-12.407-9.093-15.363z" stroke-linecap="round" stroke-linejoin="round"/><path fill="#FEFEFE" d="M162.566 119.24l-11.237 23.2c-.9 2.15-.894 4.568.01 6.71l9.17 21.32 9.6-8.156-6.788-15.185 3.1-6.626-3.856-21.264z"/><path stroke="#3D3E3E" stroke-width="1.762" d="M162.566 119.24l-11.237 23.2c-.9 2.15-.894 4.568.01 6.71l9.17 21.32 9.6-8.156-6.788-15.185 3.1-6.626-3.856-21.264z" stroke-linecap="round" stroke-linejoin="round"/><path fill="#FEFEFE" d="M216.922 62.98c.19-4.717-3.662-5.832-5.786-6.09-.02-9.325-1.56-15.023-1.56-15.023l-35.447-6.457-16.823 10.608s-3.3 28.655 11.174 42.71c12.618 12.254 32.083 8.222 38.932-8.29 1.05-2.53 1.826-6.776 2.393-9.47 2.162-.755 6.915-2.977 7.117-7.987"/><path stroke="#3D3E3E" stroke-width="1.762" d="M216.922 62.98c.19-4.717-3.662-5.832-5.786-6.09-.02-9.325-1.56-15.023-1.56-15.023l-35.447-6.457-16.823 10.608s-3.3 28.655 11.174 42.71c12.618 12.254 32.083 8.222 38.932-8.29 1.05-2.53 1.826-6.776 2.393-9.47 2.162-.755 6.915-2.977 7.117-7.987z" stroke-linecap="round" stroke-linejoin="round"/><path stroke="#3D3E3E" stroke-width="1.762" d="M161.07 52.135s1.21-4.016 4.644-3.187c6.195 1.498 7.21-1.98 7.21-1.98M197.036 57.713s-1.732-3.34-4.592-3.543c-5.488-.39-10.93.732-10.29-2.078" stroke-linecap="round" stroke-linejoin="round"/><path fill="#3D3E3E" d="M169.092 58.684c0 1.526-1.237 2.763-2.763 2.763-1.527 0-2.765-1.237-2.765-2.763 0-1.525 1.238-2.763 2.764-2.763 1.525 0 2.762 1.24 2.762 2.764M189.29 61.153c0 1.443-1.17 2.614-2.614 2.614-1.445 0-2.615-1.17-2.615-2.614 0-1.443 1.17-2.614 2.616-2.614 1.444 0 2.615 1.17 2.615 2.613"/><path stroke="#3D3E3E" stroke-width="1.762" d="M177.22 68.88s-3.863-.32-3.863 2.818c0 4.435 5.184 2.403 5.184 2.403M179.762 82.005s2.076-2.846 5.494-3.398c2.826-.457 5.493 0 5.493 0" stroke-linecap="round" stroke-linejoin="round"/><path fill="#3D3E3E" d="M211.14 27.82c-8.89-10.45-23.915-9.517-40.136-5.553-16.22 3.964-18.383 0-18.383 0 0 6.598 5.187 7.355 5.187 7.355-6.325 3.513-14.198-3.29-14.198-3.29 1.44 8.648 9.834 12.577 9.834 12.577-3.245 1.2-9.835-1.337-9.835-1.337s.72 3.222 5.045 6.465c4.326 3.243 8.65 1.98 8.65 1.98l18.974-3.97c7.255-1.52 16.615-2.08 22.08-1.24 3.33.512 3.463 2.27 5.385 4.26.508 4.25 1.695 11.693 1.318 14.44l-.31 2.244c-.354 2.54 2.562 4.22 4.582 2.638l.303-5.352c.137-2.423 3.836-2.66 5.45-.847 1.658 1.867 1.842 3.257 1.842 3.257s3.098-23.175-5.79-33.627"/><path stroke="#3D3E3E" stroke-width="1.762" d="M211.14 27.82c-8.89-10.45-23.915-9.517-40.136-5.553-16.22 3.964-18.383 0-18.383 0 0 6.598 5.187 7.355 5.187 7.355-6.325 3.513-14.198-3.29-14.198-3.29 1.44 8.648 9.834 12.577 9.834 12.577-3.245 1.2-9.835-1.337-9.835-1.337s.72 3.222 5.045 6.465c4.326 3.243 8.65 1.98 8.65 1.98l18.974-3.97c7.255-1.52 16.615-2.08 22.08-1.24 3.33.512 3.463 2.27 5.385 4.26.508 4.25 1.695 11.693 1.318 14.44l-.31 2.244c-.354 2.54 2.562 4.22 4.582 2.638l.303-5.352c.137-2.423 3.836-2.66 5.45-.847 1.658 1.867 1.842 3.257 1.842 3.257s3.098-23.175-5.79-33.627z" stroke-linecap="round" stroke-linejoin="round"/><path fill="#D6D6D6" d="M148.74 265.548c-3.317-.963-5.227-4.433-4.264-7.75l16.774-49.57 24.51 7.11-15.62 45.6c-1.6 5.51-7.365 8.68-12.877 7.082l-8.523-2.472z"/><path fill="#FF4845" d="M219.614 109.52c-2.847-2.51-13.41-7.12-13.41-7.12s-3.837 3.976-12.067 5.225c-8.23 1.25-12.622-3.512-12.622-3.512l-6.782 3.444c-5.124 2.603-9.36 6.67-12.167 11.683l-5.583 9.972 9.44 11.293.467-12.613-.978 32.18 58.555 6.29s.57-9.977 1.45-24.395-.092-21.14-.092-21.14-.565-6.324-6.21-11.306z"/><path stroke="#3D3E3E" stroke-width="1.762" d="M225.825 120.828s-.565-6.325-6.21-11.307c-2.848-2.51-13.41-7.12-13.41-7.12s-3.838 3.976-12.068 5.225c-8.23 1.25-12.622-3.512-12.622-3.512l-6.782 3.444c-5.124 2.603-9.36 6.67-12.167 11.683l-5.583 9.972 9.44 11.293.467-12.613-.978 32.18 58.555 6.29s.57-9.977 1.45-24.395-.092-21.14-.092-21.14z" stroke-linecap="round" stroke-linejoin="round"/><g stroke="#3D3E3E" stroke-width="1.762" stroke-linecap="round" stroke-linejoin="round"><path fill="#FFF" d="M164.336 266.784c2.21 1.024 2.266 2.79.124 3.943l-17.333 9.333-17.612-7.148 13.31-7.455c4.663-2.61 12.37-2.908 17.215-.663l4.296 1.99z"/><path fill="#FFF" d="M159.55 266.347c.244 2.596-1.164 5.07-3.523 6.183l-11.094 5.244c-1.548.732-3.332.79-4.925.16l-1.51-.595c-4.833-1.91-11.05-5.21-6.54-7.79l14.17-6.6c.765-.44.41-1.602 1.29-1.685l5.376-.508c3.41-.323 6.434 2.18 6.755 5.59z"/><path fill="#FFF" d="M132.145 267.625s4.09-2.103 9.995 1.852c5.906 3.955 5.202 10.85 5.202 10.85s-14.997 7.77-23.535 1.23c-9.06-6.937 8.338-13.932 8.338-13.932z"/><path fill="#D8D8D8" d="M157.263 268.02l-8.523-2.472c-3.317-.963-5.227-4.433-4.264-7.75l16.774-49.57 24.51 7.11-15.62 45.6c-1.6 5.51-7.365 8.68-12.877 7.082z"/></g><path fill="#FFF" stroke="#3D3E3E" stroke-width="1.762" d="M216.393 120.638l-7.085 7.085-17.568-23.588s-2.538-9.442-.71-16.053c1.58-5.717.387-6.338 0-6.61-2.49-1.746-6.355 7.93-6.355 7.93S170.32 77.144 167.797 78.51c-4.257 2.303 7.167 11.87 7.167 11.87s-8.077 8.038-3.684 12.875c4.39 4.838 11.682 8.356 11.682 8.356s11.604 24.376 21.175 34.102c1.803 1.833 4.79 1.966 6.76.303l11.183-7.918" stroke-linecap="round" stroke-linejoin="round"/><path fill="#FF4635" stroke="#3D3E3E" stroke-width="1.762" d="M219.3 116.652l-8.02 6.75s3.48 2.195 5.5 8.893c2.018 6.7-1.635 13.005-1.635 13.005l8.74-6.306" stroke-linecap="round" stroke-linejoin="round"/><path stroke="#3D3E3E" stroke-width="1.762" d="M79.22 272.72c-2.494 0-4.515-2.358-4.515-5.267V157.838h9.028v109.615c0 2.91-2.02 5.266-4.514 5.266z" stroke-linecap="round" stroke-linejoin="round"/><path fill="#FEFEFE" d="M302.96 228.386L.64 197.142l76.507-48.157 293.9 21.862"/><path stroke="#3D3E3E" stroke-width="1.762" d="M.94 197.483l84.574-48.157 313.36 21.862M206.644 197.91v6.778c0 .998.808 1.807 1.806 1.807h47.417c.998 0 1.808-.81 1.808-1.807v-6.778" stroke-linecap="round" stroke-linejoin="round"/><path stroke="#3D3E3E" stroke-width="1.762" d="M257.675 197.91h-51.032l13.923-9.095c.71-.463 1.537-.71 2.384-.71h18.418c.847 0 1.675.247 2.383.71l13.925 9.095zM266.41 179.81h-17.47c-1.305 0-2.172-1.35-1.63-2.535l1.656-3.62c.29-.636.927-1.045 1.628-1.045h14.16c.702 0 1.338.41 1.63 1.046l1.654 3.62c.543 1.185-.324 2.534-1.63 2.534z" stroke-linecap="round" stroke-linejoin="round"/><path stroke="#FF4845" stroke-width="1.762" d="M194.04 182.83l-82.192-4.932c-2.617-.157-2.993-3.858-.462-4.54l45.665-12.274c2.674-.718 5.444-1.007 8.208-.856l78.72 4.295c1.594.088 1.91 2.305.402 2.833l-40.195 14.062c-3.254 1.138-6.703 1.62-10.145 1.412z" stroke-linecap="round" stroke-linejoin="round"/><g fill="#FFF" stroke="#3D3E3E" stroke-width="1.762" stroke-linecap="round" stroke-linejoin="round"><path d="M198.04 173.397l13.554-1.512v3.724l-13.554 2.118z"/><path d="M183.534 165.52l21.163-1.265 6.658 7.396-13.315 1.747z"/><path d="M198.04 177.728l-13.072-6.17-1.434-5.922 14.506 7.76z"/></g><path fill="#FEFEFE" d="M123.532 138.717l.018.156c-.026-.033-.034-.066-.034-.1 0-.015 0-.04.016-.056M145.41 138.774c0 .025-.008.05-.017.066l.01-.115c.007.017.007.033.007.05"/><path fill="#3E3E3E" d="M178.944 168.143h-20.338c-.705 0-1.277-.632-1.277-1.41 0-.782.57-1.414 1.276-1.414h20.338c.705 0 1.276.63 1.276 1.412 0 .78-.57 1.41-1.276 1.41z"/><path fill="#FFF" stroke="#3D3E3E" stroke-width="1.762" d="M178.806 163.37c0-3.214-4.436-5.82-9.91-5.82-5.47 0-9.908 2.606-9.908 5.82h19.818zM158.988 170.045c0 1.136.162 2.167 1.862 2.928 1.804.808 5.23 1.312 8.047 1.312 2.506 0 5.676-.398 7.42-1.055 2.067-.777 2.49-1.916 2.49-3.185h-19.82z" stroke-linecap="round" stroke-linejoin="round"/><path fill="#FEFEFE" d="M123.623 138.593c-.05.033-.074.074-.09.115l-.017-.115h.107zM145.41 138.593l-.008.132c-.017-.05-.05-.09-.1-.132h.108z"/><path stroke="#3D3E3E" stroke-width="1.762" d="M156.693 144.914c0 .74-4.9 1.338-10.945 1.338-6.046 0-10.946-.6-10.946-1.338 0-.738 4.9-1.337 10.946-1.337 6.045 0 10.945.6 10.945 1.337zM141.85 168.12l11.287-38.312" stroke-linecap="round" stroke-linejoin="round"/><path fill="#FFF" stroke="#3D3E3E" stroke-width="1.762" d="M156.638 145.34l-2.84 25.936c-.164 1.508-1.687 2.714-3.646 2.897-1.35.12-2.93.227-4.436.227-.996 0-2.033-.075-2.963-.17-1.877-.196-3.35-1.32-3.59-2.752l-4.36-26.12c.41.53 5.135.953 10.913.953 5.835 0 10.6-.428 10.922-.97z" stroke-linecap="round" stroke-linejoin="round"/><path fill="#FEFEFE" d="M63.047 197.145l-20.614-48.677c-.9-2.127.58-4.525 2.796-4.525l51.342 1.8c3.51.122 6.607 2.323 7.878 5.596l20.313 52.327-61.716-6.522z"/><path stroke="#3D3E3E" stroke-width="1.762" d="M123.54 199.877l-18.923-48.55c-1.274-3.267-4.38-5.465-7.9-5.588l-51.48-1.797c-2.222 0-3.707 2.394-2.803 4.52l20.67 48.603 61.64 6.487.033.025.067-.015.14.015-.016-.042 48.847-10.8c1.293-.29 2.214-1.438 2.214-2.764 0-.257-.238-1.33-.49-1.276l-52 11.18zM175.542 188.696l-56.6-1.958" stroke-linecap="round" stroke-linejoin="round"/><path fill="#FEFEFE" d="M193.89 243.882l33.916 14.808c2.593 1.37 2.163 5.208-.67 5.97l-1.63.437c-.78.21-1.61.12-2.327-.252l-30.83-15.828c-1.617-.83-1.712-3.105-.17-4.067l1.71-1.068z"/><path stroke="#3D3E3E" stroke-width="1.762" d="M193.89 243.882l33.916 14.808c2.593 1.37 2.163 5.208-.67 5.97l-1.63.437c-.78.21-1.61.12-2.327-.252l-30.83-15.828c-1.617-.83-1.712-3.105-.17-4.067l1.71-1.068z" stroke-linecap="round" stroke-linejoin="round"/><path fill="#3D3E3E" d="M86.79 173.727c-1.53 0-2.77-1.372-2.77-3.066 0-.71.22-1.362.586-1.882-.366-.1-.748-.16-1.142-.16-2.59 0-4.69 2.32-4.69 5.187 0 2.865 2.1 5.188 4.69 5.188 2.59 0 4.69-2.323 4.69-5.188 0-.156-.01-.31-.023-.462-.396.244-.853.384-1.34.384"/><path stroke="#3D3E3E" stroke-width="1.762" d="M86.79 173.727c-1.53 0-2.77-1.372-2.77-3.066 0-.71.22-1.362.586-1.882-.366-.1-.748-.16-1.142-.16-2.59 0-4.69 2.32-4.69 5.187 0 2.865 2.1 5.188 4.69 5.188 2.59 0 4.69-2.323 4.69-5.188 0-.156-.01-.31-.023-.462-.396.244-.853.384-1.34.384z" stroke-linecap="round" stroke-linejoin="round"/><path fill="#FEFEFE" d="M294.602 189.79c0 .746-4.015 1.35-8.97 1.35-4.95 0-8.966-.604-8.966-1.35 0-.745 4.016-1.35 8.967-1.35 4.954 0 8.97.605 8.97 1.35"/><path stroke="#3D3E3E" stroke-width="1.762" d="M294.602 190.777c0 1.29-4.015 2.337-8.97 2.337-4.95 0-8.966-1.046-8.966-2.337 0-1.29 4.016-2.336 8.967-2.336 4.954 0 8.97 1.046 8.97 2.337zM285.917 214.522l7.31-45.418M288.477 176.21l-4.2 38.312M286.51 211.897l-7.94-37.114M283.57 217.03l2.82-54.546M282.193 176.718l6.284 40.73" stroke-linecap="round" stroke-linejoin="round"/><path fill="#FEFEFE" d="M294.602 189.787V215.853c0 .99-.67 1.854-1.633 2.088-1.648.4-4.384.922-7.48.922-3.095 0-5.83-.52-7.478-.92-.963-.235-1.633-1.1-1.633-2.09V189.788h.287c0 .75 4.017 1.35 8.964 1.35 4.955 0 8.972-.6 8.972-1.35"/><path stroke="#3D3E3E" stroke-width="1.762" d="M294.602 189.787V215.853c0 .99-.67 1.854-1.633 2.088-1.648.4-4.384.922-7.48.922-3.095 0-5.83-.52-7.478-.92-.963-.235-1.633-1.1-1.633-2.09V189.788h.287c0 .75 4.017 1.35 8.964 1.35 4.955 0 8.972-.6 8.972-1.35z" stroke-linecap="round" stroke-linejoin="round"/><path fill="#FFF" d="M306.976 237.252L.64 207.412v-10.176l306.336 28.28v-.066l92.724-54.486v11.424l-92.724 54.882v-.018z"/><path stroke="#3D3E3E" stroke-width="1.762" d="M307.032 236.09l-.015.456v134.877c0 2.798-1.772 5.27-4.16 5.512-.138.013-.277.02-.418.02-.14 0-.28-.007-.417-.02-2.39-.242-4.16-2.714-4.16-5.512V236.44L9.668 208.544v123.194c0 2.91-2.02 5.266-4.515 5.266-2.493 0-4.514-2.357-4.514-5.266V197.306l301.5 29.374 1.21-.255 96.106-55.46v11.423l-.14.08V300.7c0 2.91-2.02 5.267-4.513 5.267-2.494 0-4.514-2.358-4.514-5.266V187.715L307.03 236.09z" stroke-linecap="round" stroke-linejoin="round"/><path stroke="#E84B44" stroke-width="1.762" d="M274.195 9.69l1.957 11.61-10.073-3.08zM287.42 66.063l-5.608 10.353-6.04-8.626z" stroke-linecap="round" stroke-linejoin="round"/><ellipse cx="332.849" cy="64.11" stroke="#E84B44" stroke-width="1.762" rx="4.214" ry="4.213"/><g stroke="#FF4845" stroke-width="1.762" transform="rotate(22 39.943 209.707)" stroke-linejoin="round" stroke-linecap="round"><ellipse cx="28.623" cy="6.861" transform="rotate(61 28.623 6.86)" rx="4.74" ry="4.739"/><path d="M12.928 56.645l-9.594 5.318M10.528 63.458l-4.65-8.387"/></g><path stroke="#FF4845" stroke-width="1.762" d="M84.81 115.584l-7.276-9.745 10.78-1.9z" stroke-linecap="round" stroke-linejoin="round"/><g stroke="#FF4845" stroke-width="1.762" stroke-linecap="round" stroke-linejoin="round"><path d="M113.752 76.45l-7.688-4.26M107.818 78.227l4.295-7.75"/></g><g stroke="#E84B44" stroke-width="1.762"><path d="M319.038 20.958l-7.687-4.26M313.104 22.734l4.296-7.75"/></g><g stroke="#E84B44" stroke-width="1.762"><path d="M303.945 127.932l-1.07-8.724M299.02 124.175l8.795-1.08"/></g></g></svg>
