<svg xmlns="http://www.w3.org/2000/svg" viewBox="0 0 402 327"><g fill="none" fill-rule="evenodd" transform="translate(1 1)"><g transform="translate(0 5)"><path fill="#FFF" fill-rule="nonzero" stroke="#3E3E3E" stroke-width="1.72" d="M240.26 284.66s9.65-4.392 9.928-11.435c.265-6.627-5.053-7.977-8.072-8.343M167.94 284.66s-9.65-4.392-9.928-11.435c-.265-6.627 5.053-7.977 8.072-8.343" stroke-linecap="round" stroke-linejoin="round"/><path fill="#FFF" fill-rule="nonzero" stroke="#3E3E3E" stroke-width="1.72" d="M243.127 244.713s7.15 52.67-22.056 70.554c-9.22 5.654-24.72 5.654-33.94 0-29.206-17.885-22.056-70.554-22.056-70.554" stroke-linecap="round" stroke-linejoin="round"/><path fill="#3E3E3E" fill-rule="nonzero" stroke="#3E3E3E" stroke-width="1.72" d="M178.426 214.71s-14.173 3.334-16.018 24.702c-.335 6.07-.364 12.152-.088 18.225.14 4.052 3.246 21.154 3.246 21.154s-1.806-11.093-1.263-18.742c.33-5.338 1.735-10.553 4.13-15.335 2.072-3.635 5.95-8.33 11.925-7.258 4.6.833 16.422 1.263 21.02 1.4 15.436.506 24.784-6.02 33.677.822 8.097 6.222 7.77 38.028 7.77 38.028s7.755-39.644-2.667-53.325c-10.42-13.682-33.6-9.883-41.395-14.326-5.573-3.26-9.36-8.874-10.295-15.26-2.867 13.014.948 15.866.948 15.866-7.314-2.74-11.95-19.538-11.95-19.538-4.308 12.86 4.105 22.984 4.105 22.984-6.77-2.222-11.216-11.36-11.216-11.36-1.074 5.093.29 10.394 3.688 14.338" stroke-linecap="round" stroke-linejoin="round"/><path stroke="#3E3E3E" stroke-width="1.72" d="M208.553 284.054c0 2.007-2.034 3.622-4.547 3.622-2.514 0-4.548-1.628-4.548-3.622" stroke-linecap="round" stroke-linejoin="round"/><ellipse cx="186.599" cy="266.838" fill="#3E3E3E" fill-rule="nonzero" rx="4.244" ry="4.241"/><ellipse cx="221.615" cy="266.838" fill="#3E3E3E" fill-rule="nonzero" rx="4.244" ry="4.241"/><path stroke="#3E3E3E" stroke-width="1.72" d="M200.178 299.35c5.432.935 16.422-.807 19.48-9.377M191.487 257.347s-9.865-4.48-16.42.947M215.5 257.347s9.31-4.48 15.513.947" stroke-linecap="round" stroke-linejoin="round"/><ellipse cx="281.066" cy="158.913" fill="#FFF" fill-rule="nonzero" stroke="#FF4845" stroke-width="1.72" stroke-linecap="round" stroke-linejoin="round" rx="10.323" ry="10.314"/><g stroke="#3E3E3E" stroke-width="1.72" stroke-linecap="round" stroke-linejoin="round"><path d="M67.335 122.8c-1.642.003-3.28.178-4.884.522-2.272-10.217-10.36-18.14-20.634-20.22-10.276-2.08-20.814 2.077-26.893 10.604-6.08 8.528-6.56 19.83-1.224 28.84C1.095 151.99-3.21 168.927 3.353 183.23c6.563 14.305 22.223 22.11 37.62 18.752 15.397-3.357 26.37-16.97 26.36-32.703 8.452.196 16.348-4.192 20.63-11.467 4.285-7.276 4.285-16.297 0-23.572-4.282-7.274-12.178-11.662-20.63-11.465v.025z"/><path d="M49.84 139.133c-4.987-2.24-10-1.896-15.1-.305-7.486 2.355-13.34 7.002-18.338 12.858-.803.942-2.283 2.915-2.283 2.915"/><path d="M42.187 137.49c-7.526-.004-14.314 4.518-17.198 11.458-2.885 6.94-1.296 14.93 4.024 20.246 5.32 5.314 13.324 6.906 20.278 4.032 6.954-2.874 11.488-9.648 11.488-17.16 0-10.254-8.322-18.568-18.593-18.575zm-10.202 21.58c-.873-.007-1.707-.367-2.31-.998-.604-.63-.925-1.48-.89-2.35.012-.856.373-1.668.998-2.252.626-.583 1.462-.888 2.317-.842.85.01 1.66.358 2.253.968.59.61.914 1.43.897 2.278-.034 1.765-1.47 3.182-3.24 3.195h-.025zm10.202-16.983c1.77.047 3.187 1.48 3.214 3.246-.006 1.766-1.43 3.2-3.2 3.22-.854.02-1.68-.3-2.295-.895-.614-.594-.963-1.408-.97-2.26-.014-.886.333-1.738.96-2.362.628-.624 1.483-.967 2.37-.95h-.078zm2.092 13.838c.03.78-.376 1.514-1.057 1.9-.68.387-1.52.362-2.177-.066-.656-.428-1.017-1.185-.937-1.963-.034-.78.374-1.514 1.055-1.9.68-.387 1.52-.362 2.176.066.657.427 1.02 1.184.94 1.962zm-1.89 14.13c-1.765.007-3.203-1.415-3.212-3.178-.01-1.763 1.413-3.2 3.18-3.212 1.765-.012 3.207 1.407 3.22 3.17.008 1.766-1.417 3.206-3.187 3.22zm9.72-10.986c-1.82.006-3.308-1.445-3.343-3.26.04-1.74 1.445-3.142 3.19-3.182.843-.018 1.658.307 2.258.9.6.59.936 1.4.93 2.244.05 1.762-1.335 3.235-3.1 3.297h.064z"/><g><path d="M399.575 142.828c.01-12.332-8.14-23.167-19.944-26.52-11.803-3.352-24.386 1.594-30.797 12.108-7.68-3.033-16.406-1.434-22.528 4.128-6.122 5.563-8.585 14.13-6.358 22.117 2.227 7.99 8.76 14.022 16.864 15.576-2.07 10.97 2.95 22.063 12.54 27.697 9.588 5.635 21.666 4.59 30.157-2.61 8.49-7.197 11.553-18.99 7.647-29.443 7.75-5.08 12.422-13.75 12.42-23.052z"/><path d="M356.95 178.44c-2.113.625-7.643 1.097-8.125-.51-.223-.766.423-1.486 1.597-2.808.887-.894 1.642-1.912 2.243-3.02.14-.332.258-.674.387-1.017.214-.61.46-1.21.74-1.794.473-1.06 1.27-1.94 2.277-2.513 1.942-.868 4.223-.294 5.53 1.393 1.157 1.655 1.38 3.794.586 5.654-.775 1.745-2.122 3.17-3.816 4.037-.452.242-.928.436-1.42.58z"/><path d="M357.98 165.735c5.184-12.01 11.37-23.554 18.492-34.513.5-.876 1.19-1.626 2.02-2.196 1.01-.675 2.338-.618 3.287.142.606.623.885 1.5.75 2.36-.125.715-.363 1.404-.704 2.043l-2.63 5.584c-.963 2.042-1.926 4.084-2.912 6.114-3.777 8.114-8.338 15.835-13.62 23.052-.088.114-.21.197-.35.236M363.092 156.154l6.046 2.774"/></g></g><g stroke="#3E3E3E" stroke-width="1.72" stroke-linecap="round" stroke-linejoin="round"><path d="M147.203 35.742c-1.054-9.577-7.432-17.764-16.52-21.2-9.085-3.438-19.35-1.547-26.58 4.897-7.23 6.444-10.21 16.355-7.714 25.667l-.537.303c-10.44 6.145-15.97 18.03-13.91 29.885 2.063 11.854 11.29 21.22 23.204 23.55 11.913 2.33 24.043-2.858 30.5-13.046 10.372 7.353 24.444 6.87 34.278-1.178s12.967-21.645 7.633-33.123c-5.335-11.48-17.8-17.963-30.368-15.796l.013.038z"/><path d="M125.552 36.676c-8.657-.02-16.474 5.13-19.8 13.047-3.33 7.917-1.51 17.04 4.604 23.11 6.114 6.073 15.32 7.895 23.32 4.618 8-3.276 13.22-11.006 13.22-19.582 0-11.704-9.58-21.192-21.395-21.192h.052z"/><path d="M119.703 66.83l-3.63-11.12 9.504-6.867 9.52 6.866-3.633 11.12zM133.68 38.33l-8.103 3.42-8.103-3.42M109.408 44.148l.79 8.722-5.785 6.6M107.484 68.886l8.588 1.957 4.523 7.51M130.572 78.352l4.524-7.51 8.575-1.956M146.754 59.458l-5.784-6.6.777-8.71M125.578 41.75v7.093M135.096 55.987l5.874-3.13M131.464 66.83l3.632 4.013M119.704 66.83l-3.632 4.013M110.198 52.87l5.874 2.84"/><g transform="translate(218.495)"><path fill="#FFF" d="M101.798 53.935c-2.272-2.536-4.913-4.715-7.834-6.466 6.26-10.806 5.572-24.28-1.757-34.392C84.88 2.966 72.283-1.892 60.057.678 47.826 3.25 38.258 12.77 35.63 24.973c-14.008-.257-26.818 7.86-32.558 20.63-5.74 12.77-3.303 27.73 6.194 38.02 9.497 10.292 24.223 13.93 37.426 9.248 6.28 11.463 18.587 18.31 31.647 17.603 13.06-.706 24.556-8.838 29.56-20.912 5.007-12.073 2.633-25.946-6.102-35.672v.047z"/><ellipse cx="56.356" cy="57.196" rx="24.553" ry="24.532"/><path d="M56.147 76.2c9.32 0 16.875-7.55 16.875-16.862h-33.75c0 9.312 7.555 16.86 16.875 16.86zM42.49 46.534l7.943 3.79-7.96 3.334M69.623 46.534l-7.944 3.79 7.96 3.334"/></g></g><path stroke="#FF4845" stroke-width="1.72" d="M124.407 170.323l-6.055 11.182-6.524-9.317zM179.613 152.258l7.23 15.818-15.546-.543z" stroke-linecap="round" stroke-linejoin="round"/><circle cx="144.946" cy="135.484" r="5.591" stroke="#FF4845" stroke-width="1.72"/><circle cx="145.647" cy="196.399" r="4.628" stroke="#FF4845" stroke-width="1.72" stroke-linecap="round" stroke-linejoin="round" transform="rotate(61 145.647 196.4)"/><path stroke="#FF4845" stroke-width="1.72" d="M198.932 124.06l-7.104-9.516 10.525-1.856zM254.06 197.118l10.604-5.344v10.688z" stroke-linecap="round" stroke-linejoin="round"/><g stroke="#FF4845" stroke-width="1.72" stroke-linecap="round" stroke-linejoin="round"><path d="M102.366 217.634v10.306M107.578 222.796H97.204"/></g><g stroke="#FF4845" stroke-width="1.72" stroke-linecap="round" stroke-linejoin="round"><path d="M296.774 207.312v10.305M301.987 212.473h-10.374"/></g><g stroke="#FF4845" stroke-width="1.72" stroke-linecap="round" stroke-linejoin="round"><path d="M225.234 177.303l-6.886 3.51M223.606 182.633l-3.623-7.11"/></g><g stroke="#FF4845" stroke-width="1.72" stroke-linecap="round" stroke-linejoin="round"><path d="M240.67 135.42l-4.68 9.183M242.97 142.386l-9.242-4.71"/></g></g><circle cx="372" cy="15" r="15" fill="#FF4845" stroke="#FF4845" stroke-width="2"/><path stroke="#FFF" stroke-width="2" d="M364 15.22l4.956 4.956L379.132 10" stroke-linecap="round" stroke-linejoin="round"/></g></svg>
