<svg xmlns="http://www.w3.org/2000/svg" viewBox="0 0 155 45"><g fill="#FF4845" fill-rule="evenodd"><path d="M60.277 16.977v-4.19H57.37v2.053c0 1.21-.638 2.137-2.078 2.137H54.6v2.895h2.492v6.887c0 2.557 1.55 4.075 4.043 4.075 1.163 0 1.772-.225 1.966-.31v-2.698c-.137.03-.663.113-1.106.113-1.19 0-1.717-.506-1.717-1.715v-6.353h2.797v-2.895h-2.797zM78.25 26.76c-.72 2.39-2.853 4.328-6.093 4.328-3.655 0-6.896-2.698-6.896-7.337 0-4.328 3.158-7.195 6.565-7.195 4.154 0 6.59 2.783 6.59 7.112 0 .534-.055.984-.082 1.04h-9.86c.084 2.08 1.69 3.57 3.684 3.57 1.94 0 2.936-1.04 3.38-2.39l2.713.872zm-3.074-4.442c-.056-1.603-1.108-3.036-3.324-3.036-2.02 0-3.184 1.574-3.295 3.036h6.62zm6.314 13.69v-19.03h3.102v1.854c.664-1.18 2.215-2.165 4.292-2.165 3.988 0 6.23 3.093 6.23 7.14 0 4.105-2.464 7.197-6.34 7.197-1.94 0-3.407-.843-4.1-1.883v6.888H81.49zm10.413-12.2c0-2.56-1.468-4.245-3.628-4.245-2.105 0-3.628 1.686-3.628 4.245 0 2.614 1.523 4.3 3.628 4.3 2.132 0 3.628-1.686 3.628-4.3zm7.92 2.36l-2.797.788c.166 1.546 1.662 4.132 5.566 4.132 3.434 0 5.096-2.305 5.096-4.385 0-2.024-1.33-3.598-3.877-4.16l-2.048-.422c-.83-.168-1.357-.702-1.357-1.433 0-.843.803-1.574 1.938-1.574 1.8 0 2.382 1.265 2.493 2.052l2.714-.787c-.222-1.35-1.44-3.823-5.207-3.823-2.797 0-4.957 2.024-4.957 4.413 0 1.884 1.246 3.458 3.628 3.992l1.994.45c1.08.225 1.578.787 1.578 1.518 0 .843-.692 1.574-2.02 1.574-1.718 0-2.632-1.096-2.743-2.333zm10.55-13.998c0 1.18.943 2.108 2.078 2.108 1.165 0 2.106-.928 2.106-2.108 0-1.18-.94-2.137-2.105-2.137-1.134 0-2.076.956-2.076 2.137zm.5 18.497h3.185v-13.69h-3.185v13.69zm7.117-2.11c0 1.266.997 2.278 2.243 2.278 1.247 0 2.27-1.012 2.27-2.277 0-1.265-1.023-2.305-2.27-2.305-1.246 0-2.243 1.04-2.243 2.305zm14.29-8.994c2.05 0 2.963 1.35 3.268 2.558l2.88-1.067c-.554-2.193-2.548-4.498-6.176-4.498-3.877 0-6.895 3.036-6.895 7.253 0 4.16 3.018 7.28 6.978 7.28 3.545 0 5.567-2.333 6.204-4.47l-2.826-1.04c-.305 1.04-1.274 2.53-3.38 2.53-2.02 0-3.765-1.546-3.765-4.3 0-2.755 1.744-4.245 3.71-4.245zm15.038-3.008c4.043 0 7.006 3.064 7.006 7.253 0 4.216-2.963 7.28-7.006 7.28-4.016 0-6.98-3.064-6.98-7.28 0-4.19 2.964-7.253 6.98-7.253zm0 11.61c1.994 0 3.766-1.49 3.766-4.357 0-2.84-1.772-4.3-3.766-4.3-1.967 0-3.767 1.46-3.767 4.3s1.8 4.357 3.768 4.357z"/><path fill-rule="nonzero" d="M33.134 26.66L10.58 40.795c-1.592.997-3.52 1.046-5.16.132-1.64-.914-2.618-2.585-2.618-4.47V8.19c0-1.884.978-3.555 2.618-4.47 1.64-.914 3.568-.864 5.16.133l13.13 8.227c.643.404 1.49.206 1.893-.44.402-.65.205-1.5-.44-1.905l-13.13-8.227c-2.45-1.536-5.42-1.613-7.948-.204C1.56 2.714.052 5.287.052 8.19v28.266c0 2.904 1.508 5.478 4.034 6.886 1.203.67 2.507 1.005 3.808 1.005 1.43 0 2.857-.403 4.14-1.208L34.59 29.005c2.31-1.448.043-3.285-1.456-2.345z"/><g fill-rule="nonzero" stroke="#FF4845"><path d="M28.45 21.56c-.23.357-.127.836.23 1.068.128.083.272.123.415.123.252 0 .5-.123.645-.352.123-.192 2.984-4.735.3-8.18-1.866-2.396.778-5.66.805-5.692.27-.328.228-.815-.097-1.088-.325-.274-.81-.23-1.08.097-.036.042-.865 1.05-1.395 2.455-.742 1.968-.548 3.76.56 5.183 2.005 2.574-.358 6.35-.382 6.386zM39.24 21.56c-.23.357-.127.836.23 1.068.128.083.272.123.415.123.252 0 .498-.123.645-.352.123-.192 2.984-4.735.3-8.18-1.862-2.39.767-5.647.805-5.692.27-.328.227-.815-.097-1.088-.325-.274-.81-.23-1.08.097-.036.042-.866 1.05-1.396 2.455-.74 1.968-.547 3.76.56 5.183 2.006 2.574-.358 6.35-.38 6.386zM33.687 22.416c-.27.33-.22.817.107 1.088.143.118.315.175.486.175.223 0 .443-.098.595-.284.04-.05.988-1.227 1.512-2.928.717-2.325.31-4.506-1.175-6.308-2.167-2.63.792-6.528.833-6.58.26-.337.203-.822-.13-1.085-.334-.263-.817-.205-1.078.13-.156.2-3.77 4.93-.805 8.523 2.755 3.342-.218 7.11-.345 7.268z"/></g></g></svg>
